<?xml version="1.0" encoding="UTF-8"?>
<svg version="1.1" xmlns="http://www.w3.org/2000/svg" width="500" height="500">
<path d="M0 0 C9.24 0 18.48 0 28 0 C33.344817 17.34338576 38.35092172 34.74984753 43.16943359 52.24560547 C44.44392577 56.87272441 45.72076554 61.49918986 47 66.125 C47.21413544 66.89945465 47.42827087 67.6739093 47.64889526 68.47183228 C50.77877977 79.77482572 54.05812425 91.01966948 57.53125 102.22265625 C59.20939036 107.63876774 60.7576432 113.08733135 62.2734375 118.55078125 C62.91557271 120.97645411 62.91557271 120.97645411 64 123 C64.4125 121.79988281 64.825 120.59976563 65.25 119.36328125 C69.27849355 107.71056511 73.54145666 96.16716163 77.97509766 84.66308594 C79.70226782 80.17524122 81.41320307 75.68122566 83.125 71.1875 C83.425271 70.40125244 83.72554199 69.61500488 84.03491211 68.80493164 C85.72892597 64.36342626 87.40732294 59.91637541 89.07287598 55.46411133 C92.8199829 45.44800429 96.64039231 35.46070295 100.47363281 25.47729492 C101.30875983 23.30158194 102.14271454 21.1254222 102.9765625 18.94921875 C103.22145416 18.31247726 103.46634583 17.67573578 103.71865845 17.0196991 C105.88268538 11.36923464 107.93110992 5.68944771 110 0 C119.24 0 128.48 0 138 0 C133.50528376 14.60782779 133.50528376 14.60782779 131.4140625 19.796875 C130.96111816 20.9319751 130.50817383 22.0670752 130.04150391 23.23657227 C129.57405762 24.39600342 129.10661133 25.55543457 128.625 26.75 C125.21189218 35.30875481 121.91073258 43.86977827 118.93286133 52.58911133 C117.27321601 57.38968276 115.26326758 61.9360434 113.0859375 66.51953125 C111.64746987 69.80523967 110.69948245 73.15060915 109.76953125 76.609375 C108.97474691 79.07845124 107.87613578 81.10909937 106.625 83.375 C103.92287073 89.25367819 106.04987673 94.14246061 108 100 C108.495 101.68802734 108.495 101.68802734 109 103.41015625 C110.679765 109.12529422 112.57229172 114.56655765 115 120 C115.35397558 121.32800233 115.69180168 122.66063348 116 124 C118.36737069 118.40025779 120.69440309 112.78734377 122.9375 107.13671875 C123.2778125 106.27981445 123.618125 105.42291016 123.96875 104.54003906 C124.63781591 102.85153466 125.30461999 101.16213159 125.96875 99.47167969 C127.64320788 95.24671186 129.39956091 91.08766509 131.3125 86.96484375 C134.48748975 80.05475043 137.27707671 72.9960173 140.08398438 65.93066406 C140.99602931 63.63499446 141.91172821 61.34081042 142.828125 59.046875 C145.92190033 51.29110406 148.97378826 43.52316554 151.92651367 35.71240234 C152.96436115 33.09004948 154.10353949 30.54733695 155.3125 28 C158.35786896 21.48115909 160.81330206 14.73500049 163.3215332 7.99609375 C163.6537085 7.10792969 163.98588379 6.21976563 164.328125 5.3046875 C164.6262207 4.50015137 164.92431641 3.69561523 165.23144531 2.86669922 C166 1 166 1 167 0 C169.29151417 -0.08790975 171.58572524 -0.10694038 173.87890625 -0.09765625 C174.90889992 -0.09553383 174.90889992 -0.09553383 175.95970154 -0.09336853 C178.16067801 -0.08775479 180.36155409 -0.07520007 182.5625 -0.0625 C184.05143083 -0.05748676 185.54036324 -0.05292355 187.02929688 -0.04882812 C190.68623075 -0.03778093 194.34310558 -0.02050713 198 0 C195.92711849 7.61741824 193.11547582 14.7551361 190 22 C189.16408672 23.99892307 188.33073571 25.99891964 187.5 28 C182.5 40 182.5 40 181.25048828 42.99658203 C180.41340235 45.00709182 179.57845782 47.01849448 178.74560547 49.03076172 C176.3451738 54.82190831 173.88593826 60.58182226 171.36010742 66.31933594 C167.50693465 75.07218462 163.77067395 83.84235278 160.42041016 92.80126953 C158.95596957 96.68522065 157.35243958 100.46450352 155.61328125 104.234375 C152.85168176 110.23798749 150.41464229 116.35020792 148 122.5 C145.27510536 129.43996603 142.45328341 136.29047786 139.33056641 143.06103516 C136.65747796 148.96537253 134.18625739 154.95783158 131.6875 160.9375 C131.40441986 161.61343201 131.12133972 162.28936401 130.8296814 162.98577881 C126.34939877 173.68610636 121.96036108 184.41965258 117.70556641 195.21191406 C116.81148981 197.4777331 115.90695672 199.73930986 115 202 C114.01 201.67 113.02 201.34 112 201 C111.17272949 199.06750488 111.17272949 199.06750488 110.52929688 196.56445312 C109.08311313 191.27398347 107.35894814 186.13812234 105.53125 180.96875 C105.20966919 180.05218628 104.88808838 179.13562256 104.5567627 178.19128418 C103.53997931 175.29343301 102.52036305 172.39659251 101.5 169.5 C100.15364702 165.67799181 98.81031099 161.85494249 97.46875 158.03125 C97.0139325 156.74486633 97.0139325 156.74486633 96.54992676 155.43249512 C95.07573547 151.22995591 93.70198743 147.02856821 92.47070312 142.74804688 C91.35082042 138.92635058 89.93352766 135.49876433 88 132 C85.68458486 137.81091274 83.37361187 143.62356694 81.06640625 149.43774414 C80.28404015 151.40760731 79.50054715 153.37702335 78.71582031 155.34594727 C74.34200386 166.32243678 70.07807863 177.30871893 66.23242188 188.48242188 C64.63253234 193.04882608 62.86459624 197.53593724 61 202 C60.01 201.67 59.02 201.34 58 201 C56.91259766 198.51000977 56.91259766 198.51000977 55.9140625 195.19140625 C55.54321533 193.97831787 55.17236816 192.76522949 54.7902832 191.51538086 C54.401457 190.19787144 54.01303767 188.88024188 53.625 187.5625 C53.22115653 186.22312897 52.81644941 184.88401805 52.41088867 183.54516602 C50.08739162 175.83760908 47.8496157 168.10586111 45.74267578 160.33618164 C44.25753111 154.86059013 42.64673193 149.42903696 41 144 C39.10504221 137.74975363 37.28209815 131.48822061 35.5625 125.1875 C33.72308551 118.46156014 31.73826122 111.78940305 29.6875 105.125 C26.68293336 95.35440568 23.84676191 85.5421905 21.05810547 75.70800781 C18.37740343 66.27183308 15.59961101 56.86680037 12.79589844 47.46655273 C10.69192363 40.39253814 8.66909117 33.3022869 6.73291016 26.18066406 C5.15969916 20.4414823 3.39750875 14.7701347 1.52270508 9.12231445 C0.46212124 5.85235935 0 3.49325826 0 0 Z " fill="#F26742" transform="translate(240,151)"/>
<path d="M0 0 C0.87338013 -0.0049649 1.74676025 -0.00992981 2.64660645 -0.01504517 C5.55591611 -0.02972594 8.46517099 -0.03648369 11.37451172 -0.04199219 C13.3998108 -0.04774519 15.42510988 -0.0535029 17.45040894 -0.05926514 C21.7127101 -0.06979623 25.97499233 -0.07562297 30.23730469 -0.07910156 C35.66268474 -0.08454671 41.08780876 -0.10847944 46.51310921 -0.13707352 C50.70682461 -0.1558444 54.90048063 -0.16091344 59.09423447 -0.16243744 C61.09143323 -0.16543939 63.08863158 -0.17338338 65.08578873 -0.18662262 C82.99649387 -0.29673421 98.30465876 0.91143917 113.67919922 11.16113281 C113.67919922 11.82113281 113.67919922 12.48113281 113.67919922 13.16113281 C114.26572266 13.38800781 114.85224609 13.61488281 115.45654297 13.84863281 C121.25300577 17.27150013 124.61555588 25.1845542 126.55419922 31.41113281 C130.26466159 45.97981941 130.36366654 62.75952982 122.91748047 76.24316406 C116.19477015 86.6559425 116.19477015 86.6559425 111.67919922 88.16113281 C111.67919922 88.82113281 111.67919922 89.48113281 111.67919922 90.16113281 C94.29016528 99.29526019 94.29016528 99.29526019 83.67919922 99.16113281 C84.00194824 99.6499292 84.32469727 100.13872559 84.65722656 100.64233398 C86.12752721 102.8747484 87.59090429 105.11162069 89.05419922 107.34863281 C89.56208984 108.11755859 90.06998047 108.88648438 90.59326172 109.67871094 C93.02406885 113.40488239 95.2640039 116.90702157 96.67919922 121.16113281 C97.33919922 121.16113281 97.99919922 121.16113281 98.67919922 121.16113281 C99.83544922 122.78613281 99.83544922 122.78613281 101.17919922 125.16113281 C107.916301 136.76209344 115.13480651 148.0695229 122.67919922 159.16113281 C123.27555176 160.03801758 123.8719043 160.91490234 124.48632812 161.81835938 C128.87712431 168.27061689 133.27568338 174.71755065 137.67919922 181.16113281 C137.34919922 181.82113281 137.01919922 182.48113281 136.67919922 183.16113281 C131.94725383 183.38448186 127.21840178 183.54729135 122.48242188 183.65551758 C120.87380525 183.70064165 119.26555508 183.7619641 117.65820312 183.84008789 C104.32383199 184.471716 104.32383199 184.471716 100.390625 181.33740234 C98.82800134 179.00548703 97.73620444 176.75664412 96.67919922 174.16113281 C96.00115234 173.08347656 95.32310547 172.00582031 94.62451172 170.89550781 C94.02380859 169.91066406 93.42310547 168.92582031 92.80419922 167.91113281 C92.12744141 166.80511719 91.45068359 165.69910156 90.75341797 164.55957031 C90.06892578 163.43808594 89.38443359 162.31660156 88.67919922 161.16113281 C87.32630969 158.95201684 85.97215984 156.74367216 84.61669922 154.53613281 C83.96572266 153.47394531 83.31474609 152.41175781 82.64404297 151.31738281 C80.14281276 147.29950208 77.54902719 143.34475793 74.92919922 139.40332031 C73.67919922 137.16113281 73.67919922 137.16113281 73.67919922 134.16113281 C73.01919922 134.16113281 72.35919922 134.16113281 71.67919922 134.16113281 C71.24220703 133.360625 71.24220703 133.360625 70.79638672 132.54394531 C68.11508806 127.67038988 65.42732502 122.80359358 62.41796875 118.12329102 C60.67919922 115.16113281 60.67919922 115.16113281 59.22802734 111.62597656 C57.37756179 107.48182613 55.4014808 103.88244769 51.67919922 101.16113281 C44.14419077 98.68299527 35.74065251 99.57222933 27.92919922 99.84863281 C25.76782371 99.87926418 23.60634602 99.90340881 21.44482422 99.92089844 C17.33119839 99.95814669 13.21978471 100.02519477 9.10693359 100.11181641 C2.89627851 100.21080226 -3.13807731 99.80557029 -9.32080078 99.16113281 C-9.32080078 91.24113281 -9.32080078 83.32113281 -9.32080078 75.16113281 C-7.02602783 75.14131348 -4.73125488 75.12149414 -2.36694336 75.10107422 C5.26061573 75.03382051 12.88804465 74.95618866 20.51545238 74.87360573 C25.13470208 74.82390502 29.75393176 74.77757527 34.37329102 74.73925781 C38.84083831 74.70207045 43.30820655 74.65562552 47.77559853 74.60306931 C49.47017552 74.58470129 51.16479063 74.56953032 52.8594265 74.55778885 C73.38426402 75.00990679 73.38426402 75.00990679 91.42919922 66.84863281 C96.72188913 60.52680876 98.21109818 54.27259196 97.67919922 46.16113281 C96.53140997 41.33147415 95.21444946 36.46251244 92.67919922 32.16113281 C90.35065458 30.96275072 90.35065458 30.96275072 87.67919922 30.16113281 C86.50357422 29.63519531 86.50357422 29.63519531 85.30419922 29.09863281 C78.09944053 26.52550471 70.29642836 26.95087798 62.74560547 26.84472656 C61.51253159 26.82394547 60.2794577 26.80316437 59.00901794 26.78175354 C55.08663274 26.71659258 51.164183 26.65752897 47.24169922 26.59863281 C44.57566821 26.55591029 41.90966239 26.51180049 39.24365234 26.46777344 C32.72223303 26.36019945 26.20076177 26.26087685 19.67919922 26.16113281 C19.67919922 40.02113281 19.67919922 53.88113281 19.67919922 68.16113281 C10.10919922 68.16113281 0.53919922 68.16113281 -9.32080078 68.16113281 C-9.34335416 59.4426894 -9.36171723 50.72426522 -9.37261295 42.00579929 C-9.3778412 37.95787539 -9.38493777 33.90997241 -9.39624023 29.86206055 C-9.40707121 25.9587731 -9.41307806 22.05550582 -9.41567802 18.15220451 C-9.41753189 16.65979634 -9.42115178 15.16738933 -9.42653084 13.6749897 C-9.43374409 11.59165142 -9.43479161 9.5083975 -9.43432617 7.42504883 C-9.43654678 6.23702164 -9.4387674 5.04899445 -9.4410553 3.82496643 C-9.19064176 -1.72210183 -4.4226372 0.00593427 0 0 Z " fill="#F26944" transform="translate(116.32080078125,150.8388671875)"/>
<path d="M0 0 C9.57 0 19.14 0 29 0 C29 25.08 29 50.16 29 76 C19.43 76 9.86 76 0 76 C0 50.92 0 25.84 0 0 Z " fill="#F36741" transform="translate(107,258)"/>
<path d="M0 0 C9.57 0 19.14 0 29 0 C29 25.08 29 50.16 29 76 C19.43 76 9.86 76 0 76 C0 50.92 0 25.84 0 0 Z M2 2 C2 25.76 2 49.52 2 74 C10.25 74 18.5 74 27 74 C27 49.91 27 25.82 27 1 C14.8210415 0.846607 14.8210415 0.846607 2 2 Z " fill="#E68C74" transform="translate(107,258)"/>
<path d="M0 0 C0 0.66 0 1.32 0 2 C-4.34557865 3.64685085 -7.98359768 4.26451387 -12.62182617 4.31884766 C-14.57127388 4.34865219 -14.57127388 4.34865219 -16.56010437 4.37905884 C-17.97105724 4.39095654 -19.38201213 4.40261809 -20.79296875 4.4140625 C-22.26346361 4.43282295 -23.73394825 4.45239977 -25.204422 4.4727478 C-29.07845753 4.524016 -32.95252942 4.56359793 -36.82672119 4.60089111 C-40.70163378 4.64046273 -44.57638424 4.69205923 -48.45117188 4.7421875 C-63.30108409 4.92888151 -78.14873038 5.04752406 -93 5 C-93 11.93 -93 18.86 -93 26 C-89.596875 25.938125 -89.596875 25.938125 -86.125 25.875 C-82.2578125 25.8046875 -82.2578125 25.8046875 -79 26 C-78.34 26.66 -77.68 27.32 -77 28 C-82.94 27.67 -88.88 27.34 -95 27 C-95 19.08 -95 11.16 -95 3 C-92.70522705 2.98018066 -90.4104541 2.96036133 -88.04614258 2.93994141 C-80.41858348 2.87268769 -72.79115457 2.79505585 -65.16374683 2.71247292 C-60.54449714 2.66277221 -55.92526746 2.61644246 -51.3059082 2.578125 C-46.8383609 2.54093764 -42.37099267 2.49449271 -37.90360069 2.44193649 C-36.2090237 2.42356848 -34.51440858 2.40839751 -32.81977272 2.39665604 C-23.92469576 2.3328862 -15.37255756 2.02886132 -6.58988953 0.42294312 C-4 0 -4 0 0 0 Z " fill="#E1856B" transform="translate(202,223)"/>
<path d="M0 0 C0.99 0.33 1.98 0.66 3 1 C3 3.64 3 6.28 3 9 C3.66 9.33 4.32 9.66 5 10 C5 12.64 5 15.28 5 18 C5.66 18 6.32 18 7 18 C7.28875 18.9075 7.5775 19.815 7.875 20.75 C8.84378465 23.89423119 8.84378465 23.89423119 10.25 26.125 C11 28 11 28 10.125 30.25 C9.75375 30.8275 9.3825 31.405 9 32 C9.99 32.33 10.98 32.66 12 33 C11.01 33.495 11.01 33.495 10 34 C10.495 35.010625 10.99 36.02125 11.5 37.0625 C13.11592314 40.77988188 13.24859797 43.93956657 13 48 C10.80731502 44.71097253 9.99093511 41.96827287 8.90625 38.171875 C8.71405884 37.50464417 8.52186768 36.83741333 8.32385254 36.14996338 C7.71099109 34.0180144 7.1054019 31.88407782 6.5 29.75 C6.09292625 28.32928994 5.68537909 26.90871543 5.27734375 25.48828125 C4.17910348 21.66049578 3.08904875 17.83041144 2 14 C1.62939453 12.77442383 1.25878906 11.54884766 0.87695312 10.28613281 C-0.07134136 6.73266852 -0.14943985 3.66127631 0 0 Z " fill="#E68164" transform="translate(282,291)"/>
<path d="M0 0 C2.66735273 2.48952921 4.55746343 4.63408134 6 8 C5 9 5 9 1.76538086 9.11352539 C0.33185874 9.11336631 -1.10166912 9.10767407 -2.53515625 9.09765625 C-3.66503212 9.09553383 -3.66503212 9.09553383 -4.81773376 9.09336853 C-7.2326956 9.08775376 -9.64756601 9.07519883 -12.0625 9.0625 C-13.69596221 9.0574869 -15.32942586 9.05292366 -16.96289062 9.04882812 C-20.97529585 9.03777954 -24.98763241 9.02050506 -29 9 C-29.33 7.68 -29.66 6.36 -30 5 C-19.77 5.33 -9.54 5.66 1 6 C0.67 4.02 0.34 2.04 0 0 Z " fill="#EB8E74" transform="translate(248,325)"/>
<path d="M0 0 C1.07174763 3.65188082 0.76411467 6.26432828 0 10 C-0.66 10 -1.32 10 -2 10 C-1.87625 10.99 -1.87625 10.99 -1.75 12 C-2.16473295 16.97679544 -4.47520072 21.47520072 -8 25 C-8.22894513 26.99509331 -8.4557183 28.99052794 -8.66015625 30.98828125 C-9.13134638 33.77751017 -10.46731256 35.64201933 -12 38 C-13.09418978 40.63892829 -14.04151367 43.30710982 -15 46 C-15.66 46 -16.32 46 -17 46 C-17.33 46.99 -17.66 47.98 -18 49 C-18.33 48.34 -18.66 47.68 -19 47 C-18.03692641 44.13171561 -17.00680025 41.3637621 -15.875 38.5625 C-15.54951172 37.74136719 -15.22402344 36.92023438 -14.88867188 36.07421875 C-12.85125205 30.9786599 -10.66387601 25.97956193 -8.33203125 21.01171875 C-5.28490749 14.12218087 -2.68605392 7.03637757 0 0 Z " fill="#E5856B" transform="translate(381,214)"/>
<path d="M0 0 C6.875 0.875 6.875 0.875 8 2 C8.07164161 4.32835228 7.9964482 6.6402961 7.9375 8.96875 C7.76775055 10.99609236 7.76775055 10.99609236 9 12 C9.04092937 14.33297433 9.04241723 16.66705225 9 19 C9.66 19 10.32 19 11 19 C10.34 20.32 9.68 21.64 9 23 C8.74605469 22.13117188 8.49210937 21.26234375 8.23046875 20.3671875 C7.88628906 19.21476562 7.54210937 18.06234375 7.1875 16.875 C6.85105469 15.73804688 6.51460938 14.60109375 6.16796875 13.4296875 C5.03428364 10.10067237 3.645798 7.10296586 2 4 C1.01 6.64 0.02 9.28 -1 12 C-1.66 12 -2.32 12 -3 12 C-3 10.35 -3 8.7 -3 7 C-2.34 7 -1.68 7 -1 7 C-0.67 4.69 -0.34 2.38 0 0 Z " fill="#E77D60" transform="translate(326,279)"/>
<path d="M0 0 C9.24 0 18.48 0 28 0 C27.34 2.31 26.68 4.62 26 7 C25.67 7 25.34 7 25 7 C25 5.35 25 3.7 25 2 C17.08 1.67 9.16 1.34 1 1 C0.34 5.29 -0.32 9.58 -1 14 C-1.66 14 -2.32 14 -3 14 C-3 14.99 -3 15.98 -3 17 C-3.66 17 -4.32 17 -5 17 C-5 18.65 -5 20.3 -5 22 C-5.66 21.67 -6.32 21.34 -7 21 C-6.58800909 19.56115294 -6.17001084 18.12402645 -5.75 16.6875 C-5.40195312 15.48673828 -5.40195312 15.48673828 -5.046875 14.26171875 C-3.50578266 9.46018105 -1.72333846 4.73918078 0 0 Z " fill="#E48B70" transform="translate(350,151)"/>
<path d="M0 0 C2.58335023 5.16670047 4.06054843 10.47032092 5.6875 16 C6.02072266 17.093125 6.35394531 18.18625 6.69726562 19.3125 C7.00728516 20.364375 7.31730469 21.41625 7.63671875 22.5 C8.06537231 23.93859375 8.06537231 23.93859375 8.50268555 25.40625 C9.00804204 28.04194337 8.8838343 29.49856826 8 32 C7.67 32 7.34 32 7 32 C5.80712589 28.12315913 5 25.08378077 5 21 C4.01 21 3.02 21 2 21 C2 20.34 2 19.68 2 19 C1.34 19 0.68 19 0 19 C0 12.73 0 6.46 0 0 Z " fill="#EA6840" transform="translate(278,189)"/>
<path d="M0 0 C0.66 0.33 1.32 0.66 2 1 C-0.75107872 9.90054879 -4.40298363 18.41643491 -8 27 C-9.07174763 23.34811918 -8.76411467 20.73567172 -8 17 C-7.34 17 -6.68 17 -6 17 C-6.11859375 16.39671875 -6.2371875 15.7934375 -6.359375 15.171875 C-6.75171714 12.73935373 -7.03418086 10.46529472 -7 8 C-5.25 5.6875 -5.25 5.6875 -3 4 C-1.97676564 2.68441297 -0.96873032 1.35622245 0 0 Z " fill="#E77757" transform="translate(367,316)"/>
<path d="M0 0 C0.33 0 0.66 0 1 0 C2.12834465 4.14493033 3.2520635 8.29110154 4.375 12.4375 C4.85066406 14.18450195 4.85066406 14.18450195 5.3359375 15.96679688 C7.04468749 22.28561193 8.64385816 28.59599688 10 35 C9.01 35 8.02 35 7 35 C6.67 34.67 6.34 34.34 6 34 C6.04125 32.96875 6.0825 31.9375 6.125 30.875 C5.98503771 26.53616892 4.75612572 23.93372161 3 20 C2.64456573 17.66993089 2.3086247 15.33672984 2 13 C1.66355469 12.36964844 1.32710938 11.73929688 0.98046875 11.08984375 C-0.17255952 8.63219385 -0.2043329 6.94731857 -0.125 4.25 C-0.10695313 3.45078125 -0.08890625 2.6515625 -0.0703125 1.828125 C-0.04710937 1.22484375 -0.02390625 0.6215625 0 0 Z " fill="#E68B6E" transform="translate(268,153)"/>
<path d="M0 0 C3.05723978 2.8565457 5.25516494 5.74919541 7.4375 9.3125 C10.14697893 13.6686881 12.96692593 17.86398991 16 22 C15 24 15 24 13 25 C12.71125 24.195625 12.4225 23.39125 12.125 22.5625 C11.26737432 19.8673532 11.26737432 19.8673532 9 19 C9 17.68 9 16.36 9 15 C8.030625 14.731875 7.06125 14.46375 6.0625 14.1875 C5.051875 13.795625 4.04125 13.40375 3 13 C2.67 12.01 2.34 11.02 2 10 C2.33 9.34 2.66 8.68 3 8 C2.34 8 1.68 8 1 8 C0.67 5.36 0.34 2.72 0 0 Z " fill="#E48065" transform="translate(228,295)"/>
<path d="M0 0 C0.33 0 0.66 0 1 0 C1 3.63 1 7.26 1 11 C0.34 11 -0.32 11 -1 11 C-3.07626313 15.62440425 -4.70022952 20.1008651 -6 25 C-6.66 25 -7.32 25 -8 25 C-8 26.65 -8 28.3 -8 30 C-8.99 30.33 -9.98 30.66 -11 31 C-8.73636641 24.09484644 -6.30988349 17.26127297 -3.8125 10.4375 C-3.44447266 9.42880859 -3.07644531 8.42011719 -2.69726562 7.38085938 C-1.79928712 4.92016504 -0.90017838 2.45989023 0 0 Z " fill="#E7927A" transform="translate(326,214)"/>
<path d="M0 0 C14.85 0 29.7 0 45 0 C45.495 2.475 45.495 2.475 46 5 C46.66 5 47.32 5 48 5 C47.67 5.99 47.34 6.98 47 8 C44.9754262 6.06745228 43.57894208 4.36841312 42 2 C40.11185494 1.52640971 40.11185494 1.52640971 37.91748047 1.56762695 C36.65639969 1.53793571 36.65639969 1.53793571 35.36984253 1.50764465 C34.00727829 1.49805977 34.00727829 1.49805977 32.6171875 1.48828125 C31.68778351 1.47033005 30.75837952 1.45237885 29.80081177 1.43388367 C26.82558767 1.37960152 23.85052557 1.3458278 20.875 1.3125 C18.86065444 1.27934271 16.84633032 1.24485456 14.83203125 1.20898438 C9.88813744 1.12386485 4.94429318 1.05713939 0 1 C0 0.67 0 0.34 0 0 Z " fill="#E39C89" transform="translate(126,250)"/>
<path d="M0 0 C1.6852084 4.07679159 0.16939007 6.83075593 -1.4375 10.75 C-1.91058594 11.92046875 -2.38367188 13.0909375 -2.87109375 14.296875 C-3.24363281 15.18890625 -3.61617188 16.0809375 -4 17 C-7 16 -7 16 -7.984375 14.0390625 C-8.23703125 13.24242187 -8.4896875 12.44578125 -8.75 11.625 C-9.01296875 10.83351563 -9.2759375 10.04203125 -9.546875 9.2265625 C-10 7 -10 7 -9 4 C-6 8.625 -6 8.625 -6 12 C-5.34 12 -4.68 12 -4 12 C-4 10.35 -4 8.7 -4 7 C-3.34 7 -2.68 7 -2 7 C-2.04125 6.21625 -2.0825 5.4325 -2.125 4.625 C-2 2 -2 2 0 0 Z " fill="#E28E76" transform="translate(305,336)"/>
<path d="M0 0 C1.29818286 4.21679254 0.37201755 6.81173591 -1 11 C-1.33 12.03125 -1.66 13.0625 -2 14.125 C-4.83050847 22.26271186 -4.83050847 22.26271186 -8 25 C-9 23 -9 23 -8.28735352 20.66162109 C-7.71392212 19.23197021 -7.71392212 19.23197021 -7.12890625 17.7734375 C-6.71962891 16.7421875 -6.31035156 15.7109375 -5.88867188 14.6484375 C-5.45103516 13.56820312 -5.01339844 12.48796875 -4.5625 11.375 C-3.9118457 9.74304688 -3.9118457 9.74304688 -3.24804688 8.078125 C-2.17219878 5.38259352 -1.08925535 2.69013541 0 0 Z " fill="#E87D5F" transform="translate(391,189)"/>
<path d="M0 0 C0.33 0 0.66 0 1 0 C1 1.65 1 3.3 1 5 C1.66 5 2.32 5 3 5 C4 8 4 8 3.0625 10.1875 C2.5365625 11.0846875 2.5365625 11.0846875 2 12 C1.67 11.34 1.34 10.68 1 10 C0.34 10 -0.32 10 -1 10 C-0.67 10.99 -0.34 11.98 0 13 C-1.375 14.5 -1.375 14.5 -3 16 C-3.66 16 -4.32 16 -5 16 C-3.50723624 10.60308488 -1.80304155 5.30094216 0 0 Z " fill="#EB7C5E" transform="translate(332,198)"/>
<path d="M0 0 C0.66 0 1.32 0 2 0 C0.18855382 8.27227089 -3.58554603 16.27255153 -7 24 C-7.66 23.67 -8.32 23.34 -9 23 C-9 22.34 -9 21.68 -9 21 C-8.34 21 -7.68 21 -7 21 C-7 18.69 -7 16.38 -7 14 C-6.34 14 -5.68 14 -5 14 C-5 12.35 -5 10.7 -5 9 C-4.34 9 -3.68 9 -3 9 C-3 7.68 -3 6.36 -3 5 C-2.34 5 -1.68 5 -1 5 C-0.67 3.35 -0.34 1.7 0 0 Z " fill="#E3896D" transform="translate(396,247)"/>
<path d="M0 0 C0.99 0.33 1.98 0.66 3 1 C1.12050295 4.57104439 -0.17053157 6.54744301 -4 8 C-4 8.66 -4 9.32 -4 10 C-5.32 10.33 -6.64 10.66 -8 11 C-7.67 8.69 -7.34 6.38 -7 4 C-5.824375 3.8453125 -5.824375 3.8453125 -4.625 3.6875 C-1.66954819 3.22404978 -1.66954819 3.22404978 0 0 Z " fill="#ED7558" transform="translate(232,231)"/>
<path d="M0 0 C3.31248187 -0.02888146 6.62493167 -0.04675799 9.9375 -0.0625 C10.88302734 -0.07087891 11.82855469 -0.07925781 12.80273438 -0.08789062 C14.15141602 -0.09272461 14.15141602 -0.09272461 15.52734375 -0.09765625 C16.77632446 -0.10551147 16.77632446 -0.10551147 18.05053711 -0.11352539 C20 0 20 0 21 1 C23.0587768 1.27953219 25.11728432 1.44734351 27.1875 1.62109375 C28.0846875 1.80865234 28.0846875 1.80865234 29 2 C29.33 2.66 29.66 3.32 30 4 C25.98056601 5.0922375 23.46480108 4.81226186 19.5 3.625 C13.02015076 1.85996644 6.69079839 1.3129567 0 1 C0 0.67 0 0.34 0 0 Z " fill="#DD6E4F" transform="translate(176,175)"/>
<path d="M0 0 C1.875 0.25 1.875 0.25 4 1 C5.25 3.0625 5.25 3.0625 6 5 C7.32 5 8.64 5 10 5 C9.74438677 7.3431213 9.40729228 9.67843403 9 12 C8.01 12.495 8.01 12.495 7 13 C5.83072457 11.02237345 4.66464427 9.04285742 3.5 7.0625 C2.8503125 5.96035156 2.200625 4.85820312 1.53125 3.72265625 C0 1 0 1 0 0 Z " fill="#EB8268" transform="translate(196,296)"/>
<path d="M0 0 C0.99 0 1.98 0 3 0 C0.96192707 7.1178153 -1.40344742 14.06707281 -4 21 C-4.33 21 -4.66 21 -5 21 C-4.67 17.7 -4.34 14.4 -4 11 C-3.34 11 -2.68 11 -2 11 C-2 9.02 -2 7.04 -2 5 C-1.34 5 -0.68 5 0 5 C0 3.35 0 1.7 0 0 Z " fill="#E4876B" transform="translate(363,182)"/>
<path d="M0 0 C0.33 1.32 0.66 2.64 1 4 C3.31 4 5.62 4 8 4 C5.22005549 5.85329634 3.21743449 6.68563605 0.0625 7.625 C-0.79214844 7.88539063 -1.64679688 8.14578125 -2.52734375 8.4140625 C-5 9 -5 9 -9 9 C-9 8.34 -9 7.68 -9 7 C-6.04335481 5.5216774 -3.25770263 5.93967217 0 6 C-0.66 4.35 -1.32 2.7 -2 1 C-1.34 0.67 -0.68 0.34 0 0 Z " fill="#EB876F" transform="translate(211,241)"/>
<path d="M0 0 C0.66 0.66 1.32 1.32 2 2 C1.69260845 7.24930187 -0.41176078 11.66466816 -2.5625 16.375 C-2.89185547 17.11105469 -3.22121094 17.84710938 -3.56054688 18.60546875 C-4.36747805 20.40644557 -5.1828826 22.20362181 -6 24 C-6.33 24 -6.66 24 -7 24 C-7 22.35 -7 20.7 -7 19 C-6.34 19 -5.68 19 -5 19 C-4.87625 18.360625 -4.7525 17.72125 -4.625 17.0625 C-3.8020178 13.02988724 -2.90114025 9.01576093 -2 5 C-1.34 5 -0.68 5 0 5 C0 3.35 0 1.7 0 0 Z " fill="#E6937E" transform="translate(429,165)"/>
<path d="M0 0 C8.91 0 17.82 0 27 0 C26.34 2.31 25.68 4.62 25 7 C24.67 7 24.34 7 24 7 C24 5.35 24 3.7 24 2 C16.08 1.67 8.16 1.34 0 1 C0 0.67 0 0.34 0 0 Z " fill="#D37B65" transform="translate(351,151)"/>
<path d="M0 0 C1.32 0.33 2.64 0.66 4 1 C4.99 5.95 5.98 10.9 7 16 C6.34 16.33 5.68 16.66 5 17 C4.16080602 14.73117913 3.32848276 12.46022973 2.5 10.1875 C2.26152344 9.54490234 2.02304687 8.90230469 1.77734375 8.24023438 C0.72931254 5.35066261 0 3.09923939 0 0 Z " fill="#E9886C" transform="translate(336,302)"/>
<path d="M0 0 C1.32 0 2.64 0 4 0 C3.37321829 3.66172475 2.35548154 6.8818995 0.9375 10.3125 C0.57527344 11.19550781 0.21304687 12.07851563 -0.16015625 12.98828125 C-0.43730469 13.65214844 -0.71445312 14.31601562 -1 15 C-1.33 15 -1.66 15 -2 15 C-1.85879286 13.06215735 -1.71187127 11.12473045 -1.5625 9.1875 C-1.48128906 8.10855469 -1.40007812 7.02960938 -1.31640625 5.91796875 C-1 3 -1 3 0 0 Z " fill="#E57C5F" transform="translate(312,311)"/>
<path d="M0 0 C3 1 3 1 4.1875 3 C5.28113733 7.03804554 5.16301345 10.84315708 5 15 C5.66 15.33 6.32 15.66 7 16 C6.34 16.99 5.68 17.98 5 19 C4.16142312 16.39741676 3.32896656 13.79314353 2.5 11.1875 C2.14228516 10.08051758 2.14228516 10.08051758 1.77734375 8.95117188 C0.80059864 5.86744804 0 3.25504191 0 0 Z " fill="#E98E74" transform="translate(254,200)"/>
<path d="M0 0 C1.485 0.99 1.485 0.99 3 2 C3 2.66 3 3.32 3 4 C3.99 4.33 4.98 4.66 6 5 C6 3.35 6 1.7 6 0 C6.66 0.33 7.32 0.66 8 1 C7.01 4.3 6.02 7.6 5 11 C4.01 10.67 3.02 10.34 2 10 C0.47839986 6.3962102 0 3.94779314 0 0 Z " fill="#E1907B" transform="translate(350,342)"/>
<path d="M0 0 C2 3 2 3 1.375 6.9375 C0.36316042 10.55216376 -1.02109381 12.61687505 -4 15 C-5 13 -5 13 -4.00390625 9.9609375 C-3.52824219 8.77757812 -3.05257813 7.59421875 -2.5625 6.375 C-2.08941406 5.18648437 -1.61632812 3.99796875 -1.12890625 2.7734375 C-0.75636719 1.85820312 -0.38382812 0.94296875 0 0 Z " fill="#E8876F" transform="translate(406,152)"/>
<path d="M0 0 C1.76685211 3.53370421 3.00433454 6.80797855 4.1875 10.5625 C4.55230469 11.69816406 4.91710937 12.83382812 5.29296875 14.00390625 C6 17 6 17 5 20 C2.29417212 16.16674383 1.67386382 13.67461851 2 9 C1.34 9 0.68 9 0 9 C0 6.03 0 3.06 0 0 Z " fill="#E8967D" transform="translate(287,220)"/>
<path d="M0 0 C1.1796875 1.484375 1.1796875 1.484375 2 4 C1.37444758 6.88030771 0.2528971 9.53344783 -0.875 12.25 C-1.17019531 12.99507812 -1.46539062 13.74015625 -1.76953125 14.5078125 C-2.49931694 16.34404747 -3.24787427 18.17280189 -4 20 C-6 16.25 -6 16.25 -6 14 C-5.01 14 -4.02 14 -3 14 C-2.87625 12.80375 -2.7525 11.6075 -2.625 10.375 C-2.17674946 6.72403187 -1.29553163 3.45475101 0 0 Z " fill="#E9A182" transform="translate(373,157)"/>
<path d="M0 0 C0.6328125 1.84765625 0.6328125 1.84765625 1.125 4.0625 C1.29257813 4.79597656 1.46015625 5.52945313 1.6328125 6.28515625 C1.75398437 6.85105469 1.87515625 7.41695312 2 8 C1.01 8.495 1.01 8.495 0 9 C-3 5.25 -3 5.25 -3 3 C-5.475 2.01 -5.475 2.01 -8 1 C-8 0.67 -8 0.34 -8 0 C-2.25 -1.125 -2.25 -1.125 0 0 Z " fill="#E97B58" transform="translate(212,180)"/>
<path d="M0 0 C0.99 0.33 1.98 0.66 3 1 C3 3.64 3 6.28 3 9 C3.66 9.33 4.32 9.66 5 10 C4.67 10.66 4.34 11.32 4 12 C3.01 12 2.02 12 1 12 C0.01751476 7.9472484 -0.08159574 4.16138263 0 0 Z " fill="#E67957" transform="translate(282,291)"/>
<path d="M0 0 C4.87778078 4.15514659 7.99197066 9.97591199 10 16 C9.01 16 8.02 16 7 16 C6.71125 15.195625 6.4225 14.39125 6.125 13.5625 C5.26737432 10.8673532 5.26737432 10.8673532 3 10 C2.375 6.9375 2.375 6.9375 2 4 C1.34 4 0.68 4 0 4 C0 2.68 0 1.36 0 0 Z " fill="#E5866F" transform="translate(218,279)"/>
<path d="M0 0 C0.33 0 0.66 0 1 0 C1.99 2.97 2.98 5.94 4 9 C4.66 7.68 5.32 6.36 6 5 C6.6875 7.3125 6.6875 7.3125 7 10 C5.5625 11.8125 5.5625 11.8125 4 13 C3.01 12.67 2.02 12.34 1 12 C-0.61729417 8.32433144 -0.06546005 3.92760325 0 0 Z " fill="#E79178" transform="translate(300,265)"/>
<path d="M0 0 C2.40848104 2.40848104 2.71649806 4.0392255 3.5625 7.3125 C3.81128906 8.25738281 4.06007813 9.20226562 4.31640625 10.17578125 C4.94544109 12.77459376 5.49777123 15.37406102 6 18 C3.37613513 14.93882432 3 14.26826873 3 10 C2.34 10 1.68 10 1 10 C-0.60725635 6.78548731 -0.05748185 3.56387464 0 0 Z " fill="#E48971" transform="translate(347,251)"/>
<path d="M0 0 C0.66 0 1.32 0 2 0 C1.41892368 3.7602985 0.34800504 6.53035032 -1.5625 9.8125 C-2.01753906 10.60269531 -2.47257813 11.39289063 -2.94140625 12.20703125 C-3.29074219 12.79871094 -3.64007813 13.39039063 -4 14 C-4.33 14 -4.66 14 -5 14 C-5 12.35 -5 10.7 -5 9 C-4.34 9 -3.68 9 -3 9 C-2.87625 8.443125 -2.7525 7.88625 -2.625 7.3125 C-1.94023145 4.77885636 -1.00866237 2.42078968 0 0 Z " fill="#E6876E" transform="translate(240,218)"/>
<path d="M0 0 C3.04379055 2.7394115 4.99447666 4.97790666 6 9 C5.125 11.3125 5.125 11.3125 4 13 C3.34 12.01 2.68 11.02 2 10 C2.33 9.34 2.66 8.68 3 8 C2.34 8 1.68 8 1 8 C0.67 5.36 0.34 2.72 0 0 Z " fill="#EA7D5D" transform="translate(228,295)"/>
<path d="M0 0 C0.33 0 0.66 0 1 0 C0.38400666 10.939192 0.38400666 10.939192 -3 15 C-3.66 15 -4.32 15 -5 15 C-1.92482916 4.44191344 -1.92482916 4.44191344 0 0 Z " fill="#E78973" transform="translate(341,175)"/>
<path d="M0 0 C2.4294516 3.6441774 2.16179575 5.71241272 2 10 C0.68 10.33 -0.64 10.66 -2 11 C-1.85892253 9.54119891 -1.71197585 8.08296449 -1.5625 6.625 C-1.48128906 5.81289063 -1.40007812 5.00078125 -1.31640625 4.1640625 C-1 2 -1 2 0 0 Z " fill="#E97559" transform="translate(308,263)"/>
<path d="M0 0 C1.55403686 2.93163286 2.69801632 5.83365224 3.6875 9 C3.95949219 9.845625 4.23148437 10.69125 4.51171875 11.5625 C5.02468085 14.1232068 4.84216387 15.55828998 4 18 C3.67 18 3.34 18 3 18 C2.32741333 15.66836622 1.66152556 13.3347961 1 11 C0.79375 10.34 0.5875 9.68 0.375 9 C-0.18762011 5.99935943 -0.05851655 3.04286083 0 0 Z " fill="#EA927D" transform="translate(282,203)"/>
<path d="M0 0 C3.08089673 2.77280706 4.68775452 5.06326356 6 9 C4.68 8.67 3.36 8.34 2 8 C2 7.34 2 6.68 2 6 C0.68 5.34 -0.64 4.68 -2 4 C-2 3.34 -2 2.68 -2 2 C-1.34 2 -0.68 2 0 2 C0 1.34 0 0.68 0 0 Z " fill="#EA7D62" transform="translate(234,168)"/>
<path d="M0 0 C1.35304209 4.05912626 0.15216503 5.77149591 -1.4375 9.6875 C-2.14712891 11.45673828 -2.14712891 11.45673828 -2.87109375 13.26171875 C-3.24363281 14.16535156 -3.61617188 15.06898438 -4 16 C-5.80501587 9.99187576 -2.78948509 5.32538063 0 0 Z " fill="#E88E79" transform="translate(321,295)"/>
<path d="M0 0 C3.64775386 3.88309282 4.58525633 6.71201818 5 12 C4.01 12 3.02 12 2 12 C1.67 11.67 1.34 11.34 1 11 C1 8.66666667 1 6.33333333 1 4 C0.57145005 1.68963085 0.57145005 1.68963085 0 0 Z " fill="#E97A5D" transform="translate(273,176)"/>
<path d="M0 0 C1.65 0 3.3 0 5 0 C5.66 1.65 6.32 3.3 7 5 C6.34 5 5.68 5 5 5 C5 5.66 5 6.32 5 7 C5.66 7 6.32 7 7 7 C6.67 8.32 6.34 9.64 6 11 C6 10.01 6 9.02 6 8 C5.34 8 4.68 8 4 8 C2.68 5.36 1.36 2.72 0 0 Z " fill="#EB8567" transform="translate(184,277)"/>
<path d="M0 0 C0 2.31 0 4.62 0 7 C0.66 7 1.32 7 2 7 C1.67 9.31 1.34 11.62 1 14 C-0.57554035 11.11371599 -1.46276373 8.46657616 -2.125 5.25 C-2.29257812 4.45078125 -2.46015625 3.6515625 -2.6328125 2.828125 C-2.75398438 2.22484375 -2.87515625 1.6215625 -3 1 C-1 0 -1 0 0 0 Z " fill="#E89676" transform="translate(287,302)"/>
<path d="M0 0 C1.6077072 4.01926801 0.34539351 7.03462964 -1 11 C-1.62469505 12.35350594 -2.2716331 13.69934483 -3 15 C-3.66 15 -4.32 15 -5 15 C-1.92482916 4.44191344 -1.92482916 4.44191344 0 0 Z " fill="#E5967C" transform="translate(391,189)"/>
<path d="M0 0 C0 3.29657856 -0.74333269 5.16364428 -2 8.1875 C-2.37125 9.08855469 -2.7425 9.98960937 -3.125 10.91796875 C-3.41375 11.60503906 -3.7025 12.29210937 -4 13 C-4.33 13 -4.66 13 -5 13 C-5 10.69 -5 8.38 -5 6 C-4.34 6 -3.68 6 -3 6 C-2.87625 5.38125 -2.7525 4.7625 -2.625 4.125 C-2 2 -2 2 0 0 Z " fill="#E4896E" transform="translate(348,228)"/>
<path d="M0 0 C1 2 1 2 0.0625 5.125 C-0.288125 6.07375 -0.63875 7.0225 -1 8 C-1.66 8 -2.32 8 -3 8 C-3.33 8.99 -3.66 9.98 -4 11 C-5 9 -5 9 -4.51171875 7.08984375 C-4.10373047 6.02443359 -4.10373047 6.02443359 -3.6875 4.9375 C-3.42324219 4.22464844 -3.15898437 3.51179687 -2.88671875 2.77734375 C-2 1 -2 1 0 0 Z " fill="#E88F75" transform="translate(367,252)"/>
<path d="M0 0 C4.31395349 8.01162791 4.31395349 8.01162791 3.625 12.375 C3.41875 12.91125 3.2125 13.4475 3 14 C3 13.34 3 12.68 3 12 C2.34 12 1.68 12 1 12 C0.01751476 7.9472484 -0.08159574 4.16138263 0 0 Z " fill="#E18C75" transform="translate(278,189)"/>
<path d="M0 0 C2 1.75 2 1.75 4 4 C4 5.32 4 6.64 4 8 C0.7 8 -2.6 8 -6 8 C-6 7.67 -6 7.34 -6 7 C-3.36 7 -0.72 7 2 7 C1.34 4.69 0.68 2.38 0 0 Z " fill="#DD7D63" transform="translate(248,325)"/>
<path d="M0 0 C0.99 0.33 1.98 0.66 3 1 C2.39009109 4.55780196 1.4216319 7.6828589 0 11 C-1.37432457 7.18243176 -0.67975039 3.92744671 0 0 Z " fill="#E3846C" transform="translate(307,325)"/>
<path d="M0 0 C0.66 0 1.32 0 2 0 C2 0.66 2 1.32 2 2 C3.32 2.33 4.64 2.66 6 3 C6.33 5.31 6.66 7.62 7 10 C3.66442368 7.0094833 1.84916079 4.06815373 0 0 Z " fill="#E79889" transform="translate(206,313)"/>
<path d="M0 0 C0 2.95274099 -0.43891831 4.49058403 -1.5 7.1875 C-1.7784375 7.90292969 -2.056875 8.61835938 -2.34375 9.35546875 C-2.5603125 9.89816406 -2.776875 10.44085938 -3 11 C-3.66 11 -4.32 11 -5 11 C-5 9.35 -5 7.7 -5 6 C-4.34 6 -3.68 6 -3 6 C-2.87625 5.38125 -2.7525 4.7625 -2.625 4.125 C-2 2 -2 2 0 0 Z " fill="#E9927F" transform="translate(328,280)"/>
<path d="M0 0 C2.40072955 2.88087546 4.47291037 5.56404834 6 9 C5.34 9 4.68 9 4 9 C3.67 8.34 3.34 7.68 3 7 C1.35636866 6.27840576 -0.31050386 5.60648579 -2 5 C-1.34 3.35 -0.68 1.7 0 0 Z " fill="#EB876E" transform="translate(199,250)"/>
<path d="M0 0 C4.29 0 8.58 0 13 0 C13.33 0.66 13.66 1.32 14 2 C9.04653013 3.59789351 4.86717585 2.28306814 0 1 C0 0.67 0 0.34 0 0 Z " fill="#EC957B" transform="translate(192,177)"/>
<path d="M0 0 C0.66 0 1.32 0 2 0 C2.99 2.97 3.98 5.94 5 9 C4.34 9.66 3.68 10.32 3 11 C2.01 7.37 1.02 3.74 0 0 Z " fill="#E58362" transform="translate(346,331)"/>
<path d="M0 0 C0.33 0 0.66 0 1 0 C1.25 5.625 1.25 5.625 -1 9 C-1.99 9 -2.98 9 -4 9 C-2.93940067 5.818202 -1.52448631 2.9826906 0 0 Z " fill="#EB8C79" transform="translate(359,269)"/>
<path d="M0 0 C0.99 0.33 1.98 0.66 3 1 C1.19587357 4.26460973 0.16605307 5.88929795 -3 8 C-3 6.68 -3 5.36 -3 4 C-2.34 4 -1.68 4 -1 4 C-0.67 2.68 -0.34 1.36 0 0 Z " fill="#E88061" transform="translate(232,231)"/>
<path d="M0 0 C0.99 0 1.98 0 3 0 C2.46930939 3.82097239 1.50298434 6.06171403 -1 9 C-0.67 6.03 -0.34 3.06 0 0 Z " fill="#E69077" transform="translate(413,204)"/>
<path d="M0 0 C0.99 0.33 1.98 0.66 3 1 C2.40138258 3.35171131 1.73075648 5.6859378 1 8 C0.01 8.495 0.01 8.495 -1 9 C-1.09765625 2.84765625 -1.09765625 2.84765625 -1 1 C-0.67 0.67 -0.34 0.34 0 0 Z " fill="#E88E73" transform="translate(380,283)"/>
<path d="M0 0 C0.33 0.66 0.66 1.32 1 2 C1.66 2 2.32 2 3 2 C3 5.3 3 8.6 3 12 C2.67 12 2.34 12 2 12 C0.70756464 7.8803623 -0.26252625 4.33168317 0 0 Z " fill="#E58D74" transform="translate(270,253)"/>
<path d="M0 0 C0.99 0 1.98 0 3 0 C2.39009109 3.55780196 1.4216319 6.6828589 0 10 C-0.66 8.68 -1.32 7.36 -2 6 C-1.34 5.67 -0.68 5.34 0 5 C0 3.35 0 1.7 0 0 Z " fill="#E58971" transform="translate(409,213)"/>
<path d="M0 0 C0.99 0 1.98 0 3 0 C2.01 3.3 1.02 6.6 0 10 C-1.00000429 5.99998285 -0.80688405 3.94476647 0 0 Z " fill="#E19070" transform="translate(359,333)"/>
<path d="M0 0 C1.00000429 4.00001715 0.80688405 6.05523353 0 10 C-0.99 10 -1.98 10 -3 10 C-2.01 6.7 -1.02 3.4 0 0 Z " fill="#E68F72" transform="translate(381,214)"/>
<path d="M0 0 C1.125 1.625 1.125 1.625 2 4 C1.125 7.25 1.125 7.25 0 10 C-0.66 10 -1.32 10 -2 10 C-1.33333333 6.66666667 -0.66666667 3.33333333 0 0 Z " fill="#E88E7A" transform="translate(373,157)"/>
<path d="M0 0 C4 4.625 4 4.625 4 8 C3.01 8.495 3.01 8.495 2 9 C0.50178941 5.62902617 0 3.79557881 0 0 Z " fill="#E99277" transform="translate(239,311)"/>
<path d="M0 0 C0.66 0 1.32 0 2 0 C2 0.66 2 1.32 2 2 C2.99 2 3.98 2 5 2 C5.33 3.65 5.66 5.3 6 7 C5.01 7.495 5.01 7.495 4 8 C2.68 5.36 1.36 2.72 0 0 Z " fill="#E98B74" transform="translate(191,288)"/>
</svg>
